REM MD5 afc72ca57d07059e07adcbb6fa285a34
FILE "Pac-Man World (USA) (Demo).bin" BINARY
  TRACK 01 MODE2/2352
    INDEX 01 00:00:00
  TRACK 02 AUDIO
    INDEX 00 01:13:33
    INDEX 01 01:15:33
  TRACK 03 AUDIO
    INDEX 00 02:04:26
    INDEX 01 02:06:26
  TRACK 04 AUDIO
    INDEX 00 03:36:33
    INDEX 01 03:38:33
  TRACK 05 AUDIO
    INDEX 00 05:10:51
    INDEX 01 05:12:51
  TRACK 06 AUDIO
    INDEX 00 06:13:53
    INDEX 01 06:15:53
REM LEADOUT 08:52:34
